<svg fill="none" viewBox="0 0 34 34" xmlns="http://www.w3.org/2000/svg">
  <path
    d="M22.01 32.25H4.501c-.663 0-1.3-.354-1.768-.984-.47-.63-.733-1.486-.733-2.377V5.36c0-.891.264-1.746.733-2.377C3.202 2.354 3.838 2 4.5 2h13.757l6.254 8.403v18.486c0 .891-.264 1.746-.733 2.377-.47.63-1.105.984-1.769.984Z"
    stroke="current" stroke-width="3" stroke-linecap="round" stroke-linejoin="round" />
  <path
    d="M18.186 28.561a.75.75 0 0 0 1.5 0h-1.5Zm.75-11.212h.75a.75.75 0 0 0-.75-.75v.75Zm-11.82 0v-.75a.75.75 0 0 0-.75.75h.75Zm0 11.212h-.75c0 .415.336.75.75.75v-.75Zm11.492.75a.75.75 0 0 0 0-1.5v1.5ZM15.541 17.35a.75.75 0 0 0-1.5 0h1.5Zm-1.5 11.255a.75.75 0 1 0 1.5 0h-1.5Zm1.261-8.936a.75.75 0 0 0 0 1.5v-1.5Zm3.07 1.5a.75.75 0 0 0 0-1.5v1.5Zm-3.07 2.593a.75.75 0 0 0 0 1.5v-1.5Zm3.07 1.5a.75.75 0 0 0 0-1.5v1.5Zm-8.936 3.343a.75.75 0 1 0 1.5 0h-1.5Zm.75-7.162h.75v-.75h-.75v.75Zm-3.07-.75a.75.75 0 1 0 0 1.5v-1.5Zm0 3.07a.75.75 0 0 0 0 1.5v-1.5Zm3.07 1.5a.75.75 0 1 0 0-1.5v1.5Zm9.5 3.3V17.348h-1.5V28.56h1.5Zm-.75-11.963H7.116v1.5h11.82v-1.5Zm-12.57.75V28.56h1.5V17.35h-1.5Zm.75 11.962h11.492v-1.5H7.116v1.5Zm6.925-11.962v11.255h1.5V17.35h-1.5Zm1.261 3.82h3.07v-1.5h-3.07v1.5Zm0 4.092h3.07v-1.5h-3.07v1.5Zm-4.366 3.343v-7.162h-1.5v7.162h1.5Zm-3.82-6.412h3.07v-1.5h-3.07v1.5Zm0 3.07h3.07v-1.5h-3.07v1.5Z"
    fill="none" />
</svg>
